<?xml version="1.0" encoding="utf-8"?>
<!-- Generator: Adobe Illustrator 23.0.3, SVG Export Plug-In . SVG Version: 6.00 Build 0)  -->
<svg version="1.1" id="Layer_1" xmlns="http://www.w3.org/2000/svg" xmlns:xlink="http://www.w3.org/1999/xlink" x="0px" y="0px"
	 viewBox="0 0 99 32" style="enable-background:new 0 0 99 32;" xml:space="preserve">
<style type="text/css">
	.st0{fill:#3D4B88;}
	.st1{fill:#5A6BAE;}
</style>
<g>
	<g>
		<path class="st0" d="M6.89,27.8l-2.94-5.09l-3.79,6.57c-0.62,1.07,0.15,2.4,1.39,2.4h11.89C10.82,31.62,8.3,30.24,6.89,27.8z"/>
	</g>
	<g>
		<path class="st0" d="M27.64,15.02L19.41,0.76c-0.62-1.07-2.16-1.07-2.77,0l-3.71,6.42l7.37,12.76c2.15,3.72,0.95,8.53-2.76,10.69
			c-1.18,0.69-2.46,1.03-3.73,1.06h4.21h16.47c1.23,0,2-1.33,1.39-2.4L27.64,15.02z"/>
	</g>
</g>
<g>
	<g>
		<path class="st1" d="M20.29,19.93L12.93,7.18c0,0-0.01,0-0.01,0l-3.04,5.27c-0.29,0.5-0.29,1.11,0,1.6l5.18,8.97
			c0.45,0.79,0.24,1.82-0.52,2.31c-0.81,0.52-1.89,0.25-2.37-0.58l-3.3-5.72c-0.62-1.07-2.16-1.07-2.78,0l-2.12,3.67c0,0,0,0,0,0
			l2.94,5.08c2.16,3.74,6.97,5.01,10.7,2.79C21.27,28.41,22.43,23.63,20.29,19.93z"/>
	</g>
	<g>
		<path class="st1" d="M45.55,20.44c-0.61,0-1.13,0.1-1.58,0.29c-0.44,0.19-0.82,0.45-1.12,0.77c-0.3,0.32-0.53,0.69-0.68,1.1
			c-0.15,0.41-0.22,0.83-0.22,1.27c0,0.43,0.07,0.86,0.22,1.28c0.15,0.42,0.37,0.79,0.68,1.11c0.3,0.32,0.68,0.58,1.12,0.78
			c0.44,0.2,0.96,0.3,1.55,0.3h1.59c0.37,0,0.68,0.06,0.95,0.18c0.27,0.12,0.5,0.29,0.68,0.5c0.18,0.21,0.32,0.44,0.4,0.7
			c0.09,0.26,0.13,0.52,0.13,0.78c0,0.56-0.18,1.06-0.55,1.5c-0.37,0.44-0.9,0.67-1.62,0.67h-1.57c-1.29,0-2.42-0.22-3.39-0.67
			c-0.97-0.44-1.79-1.02-2.44-1.73c-0.65-0.71-1.14-1.53-1.46-2.45c-0.32-0.92-0.48-1.87-0.48-2.84c0-0.99,0.17-1.96,0.51-2.9
			c0.34-0.94,0.84-1.78,1.51-2.53c0.67-0.75,1.51-1.35,2.53-1.8c1.02-0.45,2.2-0.68,3.56-0.68h1.23c0.37,0,0.68,0.06,0.95,0.18
			c0.27,0.12,0.5,0.29,0.68,0.5c0.18,0.21,0.32,0.44,0.42,0.7c0.1,0.26,0.14,0.53,0.14,0.81c0,0.28-0.05,0.55-0.14,0.81
			c-0.1,0.26-0.23,0.5-0.42,0.7c-0.18,0.21-0.41,0.37-0.68,0.5c-0.27,0.12-0.59,0.18-0.95,0.18H45.55z"/>
		<path class="st1" d="M58.57,29.49c0,0.7-0.21,1.23-0.64,1.59c-0.43,0.37-0.93,0.55-1.53,0.55c-0.57,0-1.07-0.18-1.5-0.55
			c-0.43-0.37-0.64-0.9-0.64-1.59v-9.1h-1.51c-0.68,0-1.21-0.21-1.59-0.64c-0.38-0.43-0.57-0.93-0.57-1.53
			c0-0.59,0.19-1.1,0.57-1.53c0.38-0.43,0.91-0.64,1.59-0.64h7.28c0.68,0,1.21,0.21,1.59,0.64c0.38,0.43,0.57,0.93,0.57,1.53
			c0,0.59-0.19,1.1-0.57,1.53c-0.38,0.43-0.91,0.64-1.59,0.64h-1.46V29.49z"/>
		<path class="st1" d="M67.81,29.49c0,0.7-0.21,1.23-0.64,1.59c-0.43,0.37-0.93,0.55-1.5,0.55c-0.59,0-1.1-0.18-1.53-0.55
			c-0.43-0.37-0.64-0.9-0.64-1.59V18.22c0-0.7,0.21-1.23,0.64-1.59c0.43-0.37,0.93-0.55,1.53-0.55c0.57,0,1.07,0.18,1.5,0.55
			c0.43,0.37,0.64,0.9,0.64,1.59V29.49z"/>
		<path class="st1" d="M69.34,23.8c0-1.1,0.21-2.13,0.63-3.1c0.42-0.97,0.98-1.82,1.7-2.54c0.71-0.72,1.56-1.29,2.53-1.71
			c0.97-0.42,2.01-0.63,3.1-0.63c1.1,0,2.13,0.21,3.1,0.63c0.97,0.42,1.82,0.99,2.54,1.71c0.72,0.72,1.29,1.57,1.71,2.54
			c0.42,0.97,0.63,2.01,0.63,3.1c0,1.1-0.21,2.13-0.63,3.1c-0.42,0.97-0.99,1.82-1.71,2.53c-0.72,0.71-1.57,1.28-2.54,1.7
			c-0.97,0.42-2.01,0.63-3.1,0.63c-1.1,0-2.13-0.21-3.1-0.63c-0.97-0.42-1.82-0.98-2.53-1.7c-0.71-0.71-1.28-1.56-1.7-2.53
			C69.55,25.93,69.34,24.9,69.34,23.8z M73.73,23.86c0,0.5,0.09,0.97,0.27,1.41c0.18,0.44,0.44,0.82,0.77,1.15
			c0.33,0.33,0.71,0.59,1.15,0.77c0.43,0.18,0.9,0.27,1.41,0.27c0.5,0,0.98-0.09,1.42-0.27c0.44-0.18,0.83-0.44,1.15-0.77
			c0.32-0.33,0.58-0.71,0.77-1.15c0.19-0.43,0.29-0.9,0.29-1.41c0-0.5-0.1-0.98-0.29-1.42c-0.19-0.44-0.45-0.83-0.77-1.15
			c-0.32-0.32-0.7-0.58-1.15-0.77c-0.44-0.19-0.92-0.29-1.42-0.29c-0.5,0-0.97,0.1-1.41,0.29c-0.44,0.19-0.82,0.45-1.15,0.77
			c-0.33,0.32-0.59,0.7-0.77,1.15C73.82,22.88,73.73,23.35,73.73,23.86z"/>
		<path class="st1" d="M91.1,29.49c0,0.7-0.21,1.23-0.64,1.59c-0.43,0.37-0.94,0.55-1.53,0.55c-0.57,0-1.07-0.18-1.5-0.55
			c-0.43-0.37-0.64-0.9-0.64-1.59V18.22c0-0.7,0.21-1.23,0.64-1.59c0.43-0.37,0.93-0.55,1.5-0.55h0.1c0.77,0,1.31,0.32,1.64,0.97
			l3.91,5.92v-4.75c0-0.7,0.21-1.23,0.64-1.59c0.43-0.37,0.93-0.55,1.5-0.55c0.59,0,1.1,0.18,1.53,0.55
			c0.43,0.37,0.64,0.9,0.64,1.59v11.27c0,0.7-0.21,1.23-0.64,1.59c-0.43,0.37-0.93,0.55-1.53,0.55c-0.3,0-0.55-0.03-0.76-0.1
			c-0.21-0.07-0.39-0.16-0.53-0.26c-0.15-0.1-0.27-0.21-0.35-0.31c-0.09-0.1-0.16-0.19-0.21-0.26l-3.78-5.63V29.49z"/>
	</g>
</g>
</svg>
